<svg width="83.920410" height="50.000000" viewBox="0 0 83.9204 50" fill="none" xmlns="http://www.w3.org/2000/svg" xmlns:xlink="http://www.w3.org/1999/xlink">
	<desc>
			Created with Pixso.
	</desc>
	<defs/>
	<path d="M3.03 19.97L2.22 19.97C0.99 19.97 0 20.96 0 22.2C0 23.43 0.99 24.42 2.22 24.42L3.03 24.42C4.26 24.42 5.26 23.43 5.26 22.2C5.26 20.96 4.26 19.97 3.03 19.97Z" fill="#111111" fill-opacity="1.000000" fill-rule="nonzero"/>
	<path d="M21.57 24.42C22.8 24.42 23.79 23.43 23.79 22.2C23.79 20.96 22.8 19.97 21.57 19.97L9.2 19.97C7.97 19.97 6.97 20.96 6.97 22.2C6.97 23.43 7.97 24.42 9.2 24.42L21.57 24.42Z" fill="#111111" fill-opacity="1.000000" fill-rule="nonzero"/>
	<path d="M10.57 16.15L11.37 16.15C12.6 16.15 13.6 15.15 13.6 13.92C13.6 12.69 12.6 11.69 11.37 11.69L10.57 11.69C9.34 11.69 8.34 12.69 8.34 13.92C8.34 15.15 9.34 16.15 10.57 16.15Z" fill="#111111" fill-opacity="1.000000" fill-rule="nonzero"/>
	<path d="M24 11.69L17.54 11.69C16.31 11.69 15.31 12.69 15.31 13.92C15.31 15.15 16.31 16.15 17.54 16.15L24 16.15C25.23 16.15 26.23 15.15 26.23 13.92C26.23 12.69 25.23 11.69 24 11.69Z" fill="#111111" fill-opacity="1.000000" fill-rule="nonzero"/>
	<path d="M11.38 28.24L10.57 28.24C9.34 28.24 8.34 29.24 8.34 30.47C8.34 31.7 9.34 32.7 10.57 32.7L11.38 32.7C12.61 32.7 13.61 31.7 13.61 30.47C13.61 29.24 12.61 28.24 11.38 28.24Z" fill="#111111" fill-opacity="1.000000" fill-rule="nonzero"/>
	<path d="M24 28.24L17.55 28.24C16.32 28.24 15.32 29.24 15.32 30.47C15.32 31.7 16.32 32.7 17.55 32.7L24 32.7C25.23 32.7 26.23 31.7 26.23 30.47C26.23 29.24 25.23 28.24 24 28.24Z" fill="#111111" fill-opacity="1.000000" fill-rule="nonzero"/>
	<path d="M83.33 24.12L72.64 12.42C72.21 11.96 71.62 11.69 70.99 11.69L58.34 11.69L58.34 2.22C58.34 0.99 57.35 0 56.12 0L15.5 0C14.27 0 13.27 0.99 13.27 2.22C13.27 3.45 14.27 4.45 15.5 4.45L53.89 4.45L53.89 39.94L34.67 39.94C33.7 36.71 30.71 34.34 27.16 34.34C23.62 34.34 20.62 36.71 19.66 39.94L15.5 39.94C14.27 39.94 13.27 40.94 13.27 42.17C13.27 43.4 14.27 44.4 15.5 44.4L19.66 44.4C20.62 47.63 23.62 50 27.16 50C30.71 50 33.7 47.63 34.67 44.4L56.12 44.4L61.4 44.4C62.36 47.63 65.36 50 68.9 50C72.44 50 75.44 47.63 76.4 44.4L81.69 44.4C82.92 44.4 83.92 43.4 83.92 42.17L83.92 25.62C83.92 25.07 83.71 24.53 83.33 24.12ZM27.16 45.54C25.31 45.54 23.79 44.03 23.79 42.17C23.79 40.31 25.31 38.8 27.16 38.8C29.02 38.8 30.54 40.31 30.54 42.17C30.54 44.03 29.02 45.54 27.16 45.54ZM68.9 45.54C67.04 45.54 65.53 44.03 65.53 42.17C65.53 40.31 67.04 38.8 68.9 38.8C70.76 38.8 72.27 40.31 72.27 42.17C72.27 44.03 70.76 45.54 68.9 45.54ZM76.4 39.94C75.44 36.71 72.44 34.34 68.9 34.34C65.36 34.34 62.36 36.71 61.4 39.94L58.35 39.94L58.35 16.15L70.01 16.15L76.63 23.39L64.01 23.39C62.78 23.39 61.78 24.39 61.78 25.62C61.78 26.85 62.78 27.85 64.01 27.85L79.46 27.85L79.46 39.94L76.4 39.94L76.4 39.94Z" fill="#111111" fill-opacity="1.000000" fill-rule="nonzero"/>
</svg>
